# xmcd
#
# Track frame offsets:
#	150
#	20441
#	36988
#	51801
#	66905
#	83703
#	97806
#	108783
#	125210
#	140824
#	157018
#	178819
#	196859
#	212705
#	232162
#	248513
#	262151
#	279767
#	296257
#	309235
#
# Disc length: 4255 seconds
#
# Revision: 1
# Processed by: cddbd v1.4PL0 Copyright (c) Steve Scherf et al.
# Submitted via: EasyCDDAExtractor 5.0.6
#
DISCID=20109d14
DTITLE=Various Artist - saloon tunes 66
DYEAR=1900
DGENRE=Country
TTITLE0=jackson, alan - Remember When
TTITLE1=paisley, brad - Little Moments
TTITLE2=mccomas, brian - 99.9% Sure I've Never Been Here Before
TTITLE3=worley, darryl - Tennessee River Run
TTITLE4=tiftin, dean - You Can't
TTITLE5=steele, duane - Heart Of The It Don't Matter
TTITLE6=yoakam, dwight - Late Great Golden State
TTITLE7=strait, george - Cowboys Like Us
TTITLE8=williams, hank jr. - I'm One Of You
TTITLE9=messina, jo dee - I Wish
TTITLE10=chesney, kenny - I Remember
TTITLE11=wills, mark - And The Crowd Goes Wild
TTITLE12=wright, michelle - Every Time You Come Around
TTITLE13=green, pat - Wave On Wave
TTITLE14=loveless, patty - Lovin' All Night
TTITLE15=travis, randy - Pray For The Fish
TTITLE16=rascal flatts - I Melt
TTITLE17=kershaw, sammy - I've Never Been Anywhere
TTITLE18=clark, terri - I Wanna Do It All
TTITLE19=byrd, tracy - Drinkin' Bone
EXTD=
EXTT0=
EXTT1=
EXTT2=
EXTT3=
EXTT4=
EXTT5=
EXTT6=
EXTT7=
EXTT8=
EXTT9=
EXTT10=
EXTT11=
EXTT12=
EXTT13=
EXTT14=
EXTT15=
EXTT16=
EXTT17=
EXTT18=
EXTT19=
PLAYORDER=
